<svg xmlns="http://www.w3.org/2000/svg" width="545.45" height="310.63" viewBox="0 0 545.45 310.63">
  <defs>
    <style>
      .a {
        fill: #7a7d7e;
      }

      .b {
        fill: #f26533;
      }

      .c {
        fill: #039e9e;
      }

      .d {
        fill: #ed1b6a;
      }

      .e {
        fill: #fdb515;
      }
    </style>
  </defs>
  <g>
    <g>
      <path class="a" d="M3.39,286.39c0-.36,0-.81-.05-1.33l-.06-1.59q0-.81-.06-1.5c0-.47,0-.83,0-1.08H5.72c0,.73,0,1.44.06,2.12a6.78,6.78,0,0,0,.11,1.31H6a6.86,6.86,0,0,1,2.55-2.78,7.44,7.44,0,0,1,4.15-1.16,6.6,6.6,0,0,1,3.56,1,5.64,5.64,0,0,1,2.33,3.24,6.29,6.29,0,0,1,2.77-3.22,7.9,7.9,0,0,1,3.88-1,8.4,8.4,0,0,1,3.73.72A6,6,0,0,1,31.24,283a7,7,0,0,1,1.15,2.69,15.39,15.39,0,0,1,.32,3.13v11.65H30.16V288.94a12.56,12.56,0,0,0-.21-2.31,6.1,6.1,0,0,0-.74-2,3.82,3.82,0,0,0-1.48-1.42,5,5,0,0,0-2.48-.53,5.87,5.87,0,0,0-2.92.65,5,5,0,0,0-1.8,1.68,7,7,0,0,0-.94,2.2,10.14,10.14,0,0,0-.27,2.25v11H16.78V288.68a8.42,8.42,0,0,0-1-4.36,3.34,3.34,0,0,0-3.07-1.65,7.33,7.33,0,0,0-2.65.48,5.75,5.75,0,0,0-2.16,1.49,7,7,0,0,0-1.44,2.5,10.7,10.7,0,0,0-.53,3.53v9.79H3.39Z"/>
      <path class="a" d="M39.27,273.13a1.82,1.82,0,0,1,.55-1.35,1.84,1.84,0,0,1,1.36-.55,1.88,1.88,0,0,1,1.9,1.9,1.84,1.84,0,0,1-.55,1.36,1.82,1.82,0,0,1-1.35.55,1.88,1.88,0,0,1-1.91-1.91Zm.64,7.76h2.54v19.57H39.91Z"/>
      <path class="a" d="M54.65,289.87l-7-9h3.26l5.42,7.41,5.39-7.41H64.9l-6.9,9,8.38,10.59h-3.3l-6.82-8.85-6.69,8.85h-3Z"/>
      <path class="a" d="M86.89,296.78A8.52,8.52,0,0,1,83.22,300a11.62,11.62,0,0,1-4.81,1,10.56,10.56,0,0,1-4.06-.76,9.32,9.32,0,0,1-3.14-2.14,9.56,9.56,0,0,1-2-3.27,12,12,0,0,1-.7-4.17,11.23,11.23,0,0,1,.72-4.07,9.5,9.5,0,0,1,9.07-6.18,9.49,9.49,0,0,1,4,.78,8.66,8.66,0,0,1,4.64,5,10,10,0,0,1,.59,3.35v1.78H71a8.73,8.73,0,0,0,.32,2.05,7.11,7.11,0,0,0,1.17,2.44,7.31,7.31,0,0,0,2.26,2,7,7,0,0,0,3.67.85,8.21,8.21,0,0,0,3.77-.93,6.84,6.84,0,0,0,2.8-2.54Zm-2-7.76a5.88,5.88,0,0,0-.53-2.46,6.5,6.5,0,0,0-1.44-2,6.69,6.69,0,0,0-2.16-1.37,7,7,0,0,0-2.65-.51,6.53,6.53,0,0,0-3.45.84,7.57,7.57,0,0,0-2.18,1.95,7.91,7.91,0,0,0-1.15,2.14A6,6,0,0,0,71,289Z"/>
      <path class="a" d="M110.27,297h-.08a6.6,6.6,0,0,1-1.48,1.76,9.56,9.56,0,0,1-1.93,1.23,10.14,10.14,0,0,1-2.18.72,11.61,11.61,0,0,1-2.25.23,11.26,11.26,0,0,1-4.15-.76,9.53,9.53,0,0,1-3.26-2.14,9.82,9.82,0,0,1-2.12-3.27,11.6,11.6,0,0,1,0-8.26,9.88,9.88,0,0,1,2.12-3.26,9.39,9.39,0,0,1,3.26-2.14,11.06,11.06,0,0,1,4.15-.76,11.61,11.61,0,0,1,2.25.23,10.14,10.14,0,0,1,2.18.72,9.56,9.56,0,0,1,1.93,1.23,6.6,6.6,0,0,1,1.48,1.76h.08V268.43h2.55v32h-2.55Zm.26-6.36a7.59,7.59,0,0,0-.64-3.11,7.89,7.89,0,0,0-1.73-2.54,8.55,8.55,0,0,0-2.59-1.72,8.15,8.15,0,0,0-3.22-.63,8,8,0,0,0-3.22.63A7.47,7.47,0,0,0,96.68,285a7.15,7.15,0,0,0-1.55,2.54,9.11,9.11,0,0,0-.53,3.11,9.21,9.21,0,0,0,.53,3.12,7.24,7.24,0,0,0,1.55,2.54,7.47,7.47,0,0,0,2.45,1.72,8,8,0,0,0,3.22.63,8.15,8.15,0,0,0,3.22-.63,8.55,8.55,0,0,0,2.59-1.72,8,8,0,0,0,1.73-2.54A7.68,7.68,0,0,0,110.53,290.67Z"/>
      <path class="a" d="M130.06,286.39c0-.36,0-.81,0-1.33S130,284,130,283.47s0-1-.06-1.5,0-.83,0-1.08h2.54c0,.73.05,1.44.06,2.12a6.78,6.78,0,0,0,.11,1.31,8.7,8.7,0,0,1,2.5-2.84,6.22,6.22,0,0,1,3.73-1.1,4.52,4.52,0,0,1,.74.06l.74.15-.3,2.5a3.15,3.15,0,0,0-1-.17,7.12,7.12,0,0,0-2.86.53,5.29,5.29,0,0,0-2,1.46A6.07,6.07,0,0,0,133,287.1a9.25,9.25,0,0,0-.38,2.69v10.67h-2.54Z"/>
      <path class="a" d="M143.06,290.67a10.92,10.92,0,0,1,.77-4.13,9.88,9.88,0,0,1,2.12-3.26,9.39,9.39,0,0,1,3.26-2.14,11.66,11.66,0,0,1,8.28,0,9.67,9.67,0,0,1,3.26,2.14,9.77,9.77,0,0,1,2.14,3.26,11.6,11.6,0,0,1,0,8.26,9.72,9.72,0,0,1-2.14,3.27,9.83,9.83,0,0,1-3.26,2.14,11.66,11.66,0,0,1-8.28,0,9.53,9.53,0,0,1-3.26-2.14,9.82,9.82,0,0,1-2.12-3.27A10.85,10.85,0,0,1,143.06,290.67Zm2.55,0a9,9,0,0,0,.53,3.12,7.22,7.22,0,0,0,1.54,2.54,7.62,7.62,0,0,0,2.46,1.72,8.54,8.54,0,0,0,6.44,0,7.62,7.62,0,0,0,2.46-1.72,7.37,7.37,0,0,0,1.54-2.54,9,9,0,0,0,.53-3.12,8.88,8.88,0,0,0-.53-3.11A7.28,7.28,0,0,0,159,285a7.62,7.62,0,0,0-2.46-1.72,8.54,8.54,0,0,0-6.44,0,7.62,7.62,0,0,0-2.46,1.72,7.13,7.13,0,0,0-1.54,2.54A8.88,8.88,0,0,0,145.61,290.67Z"/>
      <path class="a" d="M185.89,295c0,.37,0,.81.05,1.34s.05,1,.06,1.59,0,1,.06,1.5.05.83.05,1.08h-2.55c0-.73-.05-1.44-.06-2.12a7,7,0,0,0-.1-1.31h-.13a6.92,6.92,0,0,1-2.55,2.78,7.44,7.44,0,0,1-4.15,1.16,8.45,8.45,0,0,1-3.74-.72,5.91,5.91,0,0,1-2.29-1.89,6.84,6.84,0,0,1-1.13-2.69,17,17,0,0,1-.29-3.13V280.89h2.54v11.52a12.56,12.56,0,0,0,.21,2.31,6.1,6.1,0,0,0,.74,2,3.78,3.78,0,0,0,1.49,1.42,5,5,0,0,0,2.47.53,7.33,7.33,0,0,0,2.65-.48,5.7,5.7,0,0,0,2.16-1.49,7.09,7.09,0,0,0,1.44-2.5,10.47,10.47,0,0,0,.53-3.54v-9.78h2.54Z"/>
      <path class="a" d="M202.46,283.18h-5.59v12.75a2.75,2.75,0,0,0,.72,2,2.68,2.68,0,0,0,2,.72,5.68,5.68,0,0,0,1.46-.19,9.51,9.51,0,0,0,1.42-.49l.21,2.29a17,17,0,0,1-1.65.47,7.59,7.59,0,0,1-1.65.21,6.27,6.27,0,0,1-2.33-.4,4,4,0,0,1-2.44-2.67,7,7,0,0,1-.27-2V283.18h-4.24v-2.29h4.24v-5.64h2.54v5.64h5.59Z"/>
      <path class="a" d="M224.28,296.78a8.52,8.52,0,0,1-3.67,3.21,11.62,11.62,0,0,1-4.81,1,10.56,10.56,0,0,1-4.06-.76,9.32,9.32,0,0,1-3.14-2.14,9.56,9.56,0,0,1-2-3.27,12,12,0,0,1-.7-4.17,11.23,11.23,0,0,1,.72-4.07,9.51,9.51,0,0,1,5.13-5.4,9.69,9.69,0,0,1,3.94-.78,9.49,9.49,0,0,1,4,.78,8.66,8.66,0,0,1,4.64,5,10,10,0,0,1,.59,3.35v1.78H208.43a8.73,8.73,0,0,0,.32,2.05,7.11,7.11,0,0,0,1.17,2.44,7.31,7.31,0,0,0,2.26,2,7,7,0,0,0,3.67.85,8.21,8.21,0,0,0,3.77-.93,6.75,6.75,0,0,0,2.79-2.54ZM222.33,289a5.88,5.88,0,0,0-.53-2.46,6.5,6.5,0,0,0-1.44-2,6.69,6.69,0,0,0-2.16-1.37,7,7,0,0,0-2.65-.51,6.53,6.53,0,0,0-3.45.84,7.57,7.57,0,0,0-2.18,1.95,7.91,7.91,0,0,0-1.15,2.14,5.53,5.53,0,0,0-.34,1.42Z"/>
      <path class="a" d="M244.53,303.89a15.19,15.19,0,0,1-.23,2.75,5.33,5.33,0,0,1-.87,2.12,4.13,4.13,0,0,1-1.72,1.38,6.67,6.67,0,0,1-2.77.49,5.88,5.88,0,0,1-2-.38l.39-2.25a4.44,4.44,0,0,0,1.61.34,3.25,3.25,0,0,0,1.63-.36,2.44,2.44,0,0,0,.93-.93,3.84,3.84,0,0,0,.42-1.34,11.6,11.6,0,0,0,.11-1.6V280.89h2.54Zm-3.18-30.76a1.82,1.82,0,0,1,.55-1.35,1.84,1.84,0,0,1,1.36-.55,1.88,1.88,0,0,1,1.9,1.9,1.84,1.84,0,0,1-.55,1.36,1.82,1.82,0,0,1-1.35.55,1.88,1.88,0,0,1-1.91-1.91Z"/>
      <path class="a" d="M268.3,295c0,.37,0,.81,0,1.34s.05,1,.06,1.59,0,1,.06,1.5.05.83.05,1.08H266c0-.73-.05-1.44-.07-2.12a7,7,0,0,0-.1-1.31h-.13a6.89,6.89,0,0,1-2.54,2.78A7.46,7.46,0,0,1,259,301a8.47,8.47,0,0,1-3.75-.72,5.91,5.91,0,0,1-2.29-1.89,6.68,6.68,0,0,1-1.12-2.69,16.13,16.13,0,0,1-.3-3.13V280.89h2.54v11.52a12.56,12.56,0,0,0,.21,2.31,6.33,6.33,0,0,0,.74,2,3.84,3.84,0,0,0,1.49,1.42,5,5,0,0,0,2.48.53,7.37,7.37,0,0,0,2.65-.48,5.86,5.86,0,0,0,2.16-1.49,7.22,7.22,0,0,0,1.43-2.5,10.47,10.47,0,0,0,.53-3.54v-9.78h2.55Z"/>
      <path class="a" d="M275.08,273.13a1.88,1.88,0,0,1,1.9-1.9,1.88,1.88,0,0,1,1.91,1.9,1.88,1.88,0,0,1-.55,1.36A1.84,1.84,0,0,1,277,275a1.82,1.82,0,0,1-1.35-.55A1.84,1.84,0,0,1,275.08,273.13Zm.63,7.76h2.54v19.57h-2.54Z"/>
      <path class="a" d="M301.85,297.58a9.14,9.14,0,0,1-3.26,2.56,9.43,9.43,0,0,1-3.94.83,11.22,11.22,0,0,1-4.15-.76,9.53,9.53,0,0,1-3.26-2.14,9.82,9.82,0,0,1-2.12-3.27,11.6,11.6,0,0,1,0-8.26,9.88,9.88,0,0,1,2.12-3.26,9.39,9.39,0,0,1,3.26-2.14,11,11,0,0,1,4.15-.76,9,9,0,0,1,4,.89,10.38,10.38,0,0,1,3.29,2.5l-2,1.52a9.07,9.07,0,0,0-2.41-1.93,6,6,0,0,0-2.84-.69,7.94,7.94,0,0,0-3.22.63A7.62,7.62,0,0,0,289,285a7.13,7.13,0,0,0-1.54,2.54,8.88,8.88,0,0,0-.53,3.11,9,9,0,0,0,.53,3.12,7.22,7.22,0,0,0,1.54,2.54,7.62,7.62,0,0,0,2.46,1.72,7.94,7.94,0,0,0,3.22.63,6,6,0,0,0,2.94-.74,7.63,7.63,0,0,0,2.31-2Z"/>
      <path class="a" d="M323.12,296.78a8.52,8.52,0,0,1-3.67,3.21,11.62,11.62,0,0,1-4.81,1,10.56,10.56,0,0,1-4.06-.76,9.32,9.32,0,0,1-3.14-2.14,9.56,9.56,0,0,1-2-3.27,12,12,0,0,1-.7-4.17,11.23,11.23,0,0,1,.72-4.07,9.51,9.51,0,0,1,5.13-5.4,9.69,9.69,0,0,1,3.94-.78,9.49,9.49,0,0,1,4,.78,8.66,8.66,0,0,1,4.64,5,10,10,0,0,1,.59,3.35v1.78H307.27a8.73,8.73,0,0,0,.32,2.05,7.11,7.11,0,0,0,1.17,2.44,7.2,7.2,0,0,0,2.26,2,7,7,0,0,0,3.67.85,8.21,8.21,0,0,0,3.77-.93,6.75,6.75,0,0,0,2.79-2.54ZM321.17,289a5.88,5.88,0,0,0-.53-2.46,6.5,6.5,0,0,0-1.44-2,6.69,6.69,0,0,0-2.16-1.37,7,7,0,0,0-2.65-.51,6.53,6.53,0,0,0-3.45.84,7.57,7.57,0,0,0-2.18,1.95,7.91,7.91,0,0,0-1.15,2.14,5.53,5.53,0,0,0-.34,1.42Z"/>
      <path class="a" d="M338.75,297.49,350,285.59c.51-.51,1-1,1.53-1.63a15.75,15.75,0,0,0,1.37-1.82,10.26,10.26,0,0,0,1-2,6.73,6.73,0,0,0,.38-2.28,5.21,5.21,0,0,0-1.69-4.11,6.29,6.29,0,0,0-4.28-1.49,5.91,5.91,0,0,0-3.94,1.36,6.13,6.13,0,0,0-2.08,3.56l-3-.3a8,8,0,0,1,3.17-5.19,10.95,10.95,0,0,1,9.24-1.18,8.61,8.61,0,0,1,2.75,1.5,7.26,7.26,0,0,1,1.89,2.39,7.36,7.36,0,0,1,.7,3.25,9.62,9.62,0,0,1-.53,3.22,13.9,13.9,0,0,1-1.4,2.81,17.63,17.63,0,0,1-2,2.52c-.75.8-1.51,1.58-2.27,2.38l-9.36,9.61h15.76v2.29H338.75Z"/>
      <path class="a" d="M362.52,298.68a2,2,0,1,1,4.06,0,2,2,0,1,1-4.06,0Z"/>
      <path class="a" d="M371.16,285.46c0-1.07,0-2.21.15-3.41a23.77,23.77,0,0,1,.55-3.51,17.7,17.7,0,0,1,1.1-3.27,10,10,0,0,1,1.8-2.73,8.13,8.13,0,0,1,2.65-1.88,9.94,9.94,0,0,1,7.33,0,8,8,0,0,1,2.64,1.88,10.07,10.07,0,0,1,1.81,2.73,18.48,18.48,0,0,1,1.1,3.27,23.77,23.77,0,0,1,.55,3.51c.1,1.2.15,2.34.15,3.41s-.05,2.25-.15,3.44a23.92,23.92,0,0,1-.55,3.49,18.37,18.37,0,0,1-1.1,3.26,10.28,10.28,0,0,1-1.81,2.74,8,8,0,0,1-2.64,1.88,9.94,9.94,0,0,1-7.33,0,8.13,8.13,0,0,1-2.65-1.88,10.24,10.24,0,0,1-1.8-2.74,17.6,17.6,0,0,1-1.1-3.26,23.92,23.92,0,0,1-.55-3.49C371.21,287.71,371.16,286.56,371.16,285.46Zm2.8,0c0,.79,0,1.66.08,2.61a26.24,26.24,0,0,0,.34,2.88,17.67,17.67,0,0,0,.74,2.86,9.5,9.5,0,0,0,1.27,2.48,6,6,0,0,0,1.93,1.73,5.41,5.41,0,0,0,2.75.66,5.48,5.48,0,0,0,2.74-.66,6,6,0,0,0,1.94-1.73,9.52,9.52,0,0,0,1.28-2.48,18.77,18.77,0,0,0,.74-2.86,26.24,26.24,0,0,0,.34-2.88c.05-.95.08-1.82.08-2.61s0-1.62-.08-2.58a26.31,26.31,0,0,0-.34-2.9,18.47,18.47,0,0,0-.74-2.86,9.52,9.52,0,0,0-1.28-2.48,6.1,6.1,0,0,0-1.94-1.74,6,6,0,0,0-5.47,0,6,6,0,0,0-1.95,1.74,9.5,9.5,0,0,0-1.27,2.48,17.41,17.41,0,0,0-.74,2.86,26.31,26.31,0,0,0-.34,2.9C374,283.84,374,284.7,374,285.46Z"/>
    </g>
    <g>
      <path class="b" d="M435.7,149.83a.94.94,0,0,0-.71.2l-.47.33a36.17,36.17,0,0,0,5.29.83,42.06,42.06,0,0,0,4.89.07l-1.56-.07a39.14,39.14,0,0,1-7.44-1.36"/>
      <path class="c" d="M424.54,144.24a1.09,1.09,0,0,0-.36-.7,24.08,24.08,0,0,1-4.88-5.94,18.84,18.84,0,0,1-2.47-8.34,19,19,0,0,1,4.08-12.82,26,26,0,0,1,8.95-7.41,34.05,34.05,0,0,1,10.39-3.43,36.45,36.45,0,0,1,4.16-.44,36.12,36.12,0,0,0-7.49.44A34.05,34.05,0,0,0,426.53,109a26.08,26.08,0,0,0-8.95,7.41A18.9,18.9,0,0,0,416,137.6a24.08,24.08,0,0,0,4.88,5.94,1,1,0,0,1,.36.7c0,.63-.11,1.25-.17,1.88-.38,3.61-1.13,7.09-3.71,9.95a1.79,1.79,0,0,0,.3,0,17.45,17.45,0,0,0,3.46-.55c2.22-2.75,2.92-6,3.27-9.42a17.08,17.08,0,0,0,.18-1.88"/>
      <path class="d" d="M431.66,150a35.11,35.11,0,0,1-8,4.67,20.14,20.14,0,0,1-2.56.84c-.15.18-.28.36-.43.53a1.79,1.79,0,0,0,.3,0,18.35,18.35,0,0,0,6-1.39,34.27,34.27,0,0,0,7.54-4.34c-.72-.16-1.44-.34-2.15-.53a.94.94,0,0,0-.71.2"/>
      <path class="e" d="M475.35,125.52a19.5,19.5,0,0,0-4.28-9.56,26.9,26.9,0,0,0-9.26-7.26,35.11,35.11,0,0,0-12.55-3.45,34.18,34.18,0,0,0-4.85-.09c.5,0,1,0,1.51.09a35.1,35.1,0,0,1,12.56,3.45,26.81,26.81,0,0,1,9.26,7.26,19.5,19.5,0,0,1,4.28,9.56,19,19,0,0,1-4.61,15.37,27.83,27.83,0,0,1-11.8,8.12,34.36,34.36,0,0,1-7,1.88,37.25,37.25,0,0,1-3.94.38,37.6,37.6,0,0,0,7.27-.38,34.36,34.36,0,0,0,7-1.88,27.89,27.89,0,0,0,11.8-8.12,19,19,0,0,0,4.61-15.37"/>
      <path class="d" d="M455.61,149a27.83,27.83,0,0,0,11.8-8.12A19,19,0,0,0,472,125.52a19.5,19.5,0,0,0-4.28-9.56,26.81,26.81,0,0,0-9.26-7.26,35.11,35.11,0,0,0-12.55-3.45c-.51,0-1-.06-1.53-.09a36.28,36.28,0,0,0-4.15.44A34.05,34.05,0,0,0,429.86,109a26.08,26.08,0,0,0-8.95,7.41,18.9,18.9,0,0,0-1.61,21.16,24.08,24.08,0,0,0,4.88,5.94,1.1,1.1,0,0,1,.37.7c0,.63-.12,1.25-.18,1.88-.36,3.4-1.06,6.67-3.28,9.42a21.87,21.87,0,0,0,2.56-.84,35.11,35.11,0,0,0,8-4.67.94.94,0,0,1,.71-.2c.71.19,1.43.37,2.15.53L435,150a.94.94,0,0,1,.71-.2,39.14,39.14,0,0,0,7.44,1.36l1.56.08a37.69,37.69,0,0,0,3.95-.38,34.45,34.45,0,0,0,7-1.88"/>
      <path class="c" d="M36.79,22.9C51,9.19,67.9,1.6,87.06.24,84.87.09,82.66,0,80.42,0,58.65,0,39.62,7.71,23.85,22.9S0,56.55,0,77.58V240.64H12.94V77.58c0-21,8-39.42,23.85-54.68"/>
      <path class="c" d="M125.83,47.29c-9-8.39-19.57-12.46-32.46-12.46a55.11,55.11,0,0,0-6.52.37,44.34,44.34,0,0,1,26,12.09A39.51,39.51,0,0,1,126,77.58v163.7h13V77.58a39.54,39.54,0,0,0-13.14-30.29"/>
      <path class="c" d="M156.89,27.1,163,22.21A83.15,83.15,0,0,1,179,10.6,81.54,81.54,0,0,1,213.78.24C211.7.1,209.6,0,207.47,0a83.34,83.34,0,0,0-57.05,21.88l.35.33Z"/>
      <path class="c" d="M253,47.27c-8.85-8.37-19.51-12.45-32.6-12.45a55.82,55.82,0,0,0-6.42.37,44.09,44.09,0,0,1,26.08,12.08,39.77,39.77,0,0,1,13,30.31V240.64H266V77.58a39.77,39.77,0,0,0-13-30.31"/>
      <path class="e" d="M137.83,22.21,144,27.1l6.11-4.89.36-.33A83.34,83.34,0,0,0,93.37,0c-2.14,0-4.23.1-6.31.25A81.39,81.39,0,0,1,121.87,10.6a83.15,83.15,0,0,1,16,11.61"/>
      <path class="e" d="M47.83,47.27a39.77,39.77,0,0,0-13,30.3V240.64h13V77.57a39.76,39.76,0,0,1,13-30.3A44,44,0,0,1,86.85,35.19a56,56,0,0,0-6.43-.37c-13.08,0-23.74,4.08-32.59,12.45"/>
      <path class="e" d="M175,47.29a39.54,39.54,0,0,0-13.14,30.29v163.7h12.94V77.58A39.54,39.54,0,0,1,188,47.29,44.4,44.4,0,0,1,214,35.2a55.36,55.36,0,0,0-6.52-.37C194.58,34.83,184,38.9,175,47.29"/>
      <path class="e" d="M277,22.9C261.22,7.7,242.19,0,220.41,0c-2.23,0-4.44.09-6.63.24,19.15,1.36,36,9,50.27,22.66,15.82,15.26,23.84,33.65,23.84,54.68V240.64h12.95V77.58c0-21-8-39.42-23.85-54.68"/>
      <path class="d" d="M264.05,22.9C249.82,9.19,232.93,1.6,213.78.24A81.54,81.54,0,0,0,179,10.6a83.54,83.54,0,0,0-16,11.6l-6.12,4.9-6.12-4.9-.35-.32-.36.32L144,27.1l-6.12-4.9a83.54,83.54,0,0,0-16-11.6A81.54,81.54,0,0,0,87.06.24C67.9,1.6,51,9.19,36.79,22.9,21,38.16,12.94,56.55,12.94,77.58V240.64H34.82V77.58a39.77,39.77,0,0,1,13-30.31c8.85-8.37,19.51-12.44,32.59-12.44a53.83,53.83,0,0,1,6.43.37,55.11,55.11,0,0,1,6.52-.37c12.89,0,23.51,4.07,32.46,12.46A39.54,39.54,0,0,1,139,77.58v163.7h22.9V77.58A39.54,39.54,0,0,1,175,47.29c9-8.39,19.57-12.46,32.46-12.46a55.36,55.36,0,0,1,6.52.37,53.78,53.78,0,0,1,6.42-.37c13.09,0,23.75,4.07,32.6,12.44a39.77,39.77,0,0,1,13,30.31V240.64h21.88V77.58c0-21-8-39.42-23.84-54.68"/>
      <path class="c" d="M377.34,22.9C391.71,9.05,408.81,1.44,428.22.2V.1L422.29,0H421c-21.77,0-40.81,7.71-56.58,22.9s-23.84,33.65-23.84,54.68V240.64h12.94V77.58c0-21,8-39.42,23.85-54.68"/>
      <path class="e" d="M435.23,0h-1.31c-1.93,0-3.82.08-5.7.2V35l-6.13-.12h-.49l-.63,0c-13.08,0-23.75,4.08-32.6,12.45a39.77,39.77,0,0,0-13,30.31V240.64h12.94V77.58a39.77,39.77,0,0,1,13-30.31c8.85-8.37,19.51-12.45,32.6-12.45l.62,0h.5l6.12.12V.1Z"/>
      <path class="d" d="M388.37,47.27c8.85-8.37,19.52-12.45,32.6-12.45l.63,0h.49l6.13.12V.2c-19.41,1.24-36.51,8.85-50.88,22.7-15.83,15.26-23.85,33.65-23.85,54.67V240.64h21.88V77.57a39.76,39.76,0,0,1,13-30.3"/>
      <path class="c" d="M463.83,205.78H465c13.09,0,23.75-4.06,32.6-12.43a39.75,39.75,0,0,0,13-30.3L510.62,0H497.68l-.05,163.07a39.8,39.8,0,0,1-13,30.3c-8.84,8.37-19.5,12.43-32.6,12.43h-1.12l-6.13-.12v34.87l5.94.08H452c1.92,0,3.8-.08,5.67-.2V205.66Z"/>
      <path class="e" d="M510.62,0H532.5l0,163.07c0,21-8,39.41-23.86,54.67C494.2,231.6,477.1,239.2,457.7,240.43v.1l5.94.08H465c21.76,0,40.78-7.7,56.55-22.88s23.86-33.65,23.86-54.67L545.45,0Z"/>
      <path class="d" d="M532.45,163.08,532.5,0H510.62l-.05,163.06a39.75,39.75,0,0,1-13,30.3c-8.85,8.37-19.51,12.43-32.6,12.43h-1.13l-6.12-.12v34.77c19.4-1.23,36.5-8.83,50.89-22.68,15.82-15.26,23.85-33.65,23.86-54.67"/>
    </g>
  </g>
</svg>
